<svg preserveAspectRatio="none" width="100%" height="100%" overflow="visible" style="display: block;" viewBox="0 0 12 12" fill="none" xmlns="http://www.w3.org/2000/svg">
<g id="SVG">
<path id="Vector" d="M2.5 2.5C2.49995 2.32405 2.54632 2.15119 2.63444 1.9989C2.72256 1.8466 2.8493 1.72025 3.00188 1.6326C3.15445 1.54495 3.32744 1.49911 3.50339 1.49971C3.67935 1.50031 3.85203 1.54732 4.004 1.636L10.0025 5.135C10.1539 5.22284 10.2796 5.34887 10.367 5.5005C10.4544 5.65213 10.5005 5.82405 10.5006 5.99907C10.5008 6.17409 10.455 6.34609 10.3678 6.49787C10.2807 6.64965 10.1552 6.7759 10.004 6.864L4.004 10.364C3.85203 10.4527 3.67935 10.4997 3.50339 10.5003C3.32744 10.5009 3.15445 10.455 3.00188 10.3674C2.8493 10.2798 2.72256 10.1534 2.63444 10.0011C2.54632 9.84881 2.49995 9.67595 2.5 9.5V2.5Z" fill="var(--fill-0, white)" fill-opacity="0.7" stroke="var(--stroke-0, white)" stroke-opacity="0.7" stroke-linecap="round" stroke-linejoin="round"/>
</g>
</svg>
