<svg preserveAspectRatio="none" width="100%" height="100%" overflow="visible" style="display: block;" viewBox="0 0 14 14" fill="none" xmlns="http://www.w3.org/2000/svg">
<g id="SVG" clip-path="url(#clip0_0_9)">
<path id="Vector" d="M7 3.808V1.75C7 1.59529 7.06146 1.44692 7.17085 1.33752C7.28025 1.22812 7.42862 1.16667 7.58333 1.16667" stroke="var(--stroke-0, black)" stroke-width="1.16667" stroke-linecap="round" stroke-linejoin="round"/>
<path id="Vector_2" d="M10.6383 12.25C12.0611 10.6409 12.8424 8.56463 12.8333 6.41667C12.8333 5.74102 12.6377 5.07983 12.2702 4.51289C11.9027 3.94595 11.3789 3.4975 10.7622 3.22168C10.1454 2.94586 9.46196 2.85445 8.79438 2.95849C8.12679 3.06253 7.50359 3.35757 7 3.808C6.49641 3.35757 5.87321 3.06253 5.20562 2.95849C4.53804 2.85445 3.85461 2.94586 3.23783 3.22168C2.62106 3.4975 2.0973 3.94595 1.72978 4.51289C1.36225 5.07983 1.16668 5.74102 1.16667 6.41667C1.16299 8.56365 1.94359 10.6381 3.36175 12.25C3.62291 12.5422 3.97458 12.7382 4.36042 12.8068C4.74626 12.8753 5.14394 12.8124 5.48975 12.628C5.95453 12.38 6.47321 12.2503 7 12.2503C7.52679 12.2503 8.04547 12.38 8.51025 12.628C8.85606 12.8124 9.25374 12.8753 9.63958 12.8068C10.0254 12.7382 10.3771 12.5422 10.6383 12.25Z" stroke="var(--stroke-0, black)" stroke-width="1.16667" stroke-linecap="round" stroke-linejoin="round"/>
</g>
<defs>
<clipPath id="clip0_0_9">
<rect width="14" height="14" fill="white"/>
</clipPath>
</defs>
</svg>
