<svg preserveAspectRatio="none" width="100%" height="100%" overflow="visible" style="display: block;" viewBox="0 0 20 20" fill="none" xmlns="http://www.w3.org/2000/svg">
<g id="SVG" clip-path="url(#clip0_0_53)">
<path id="Vector" d="M10 5.44V2.5C10 2.27899 10.0878 2.06702 10.2441 1.91074C10.4004 1.75446 10.6123 1.66667 10.8333 1.66667" stroke="var(--stroke-0, black)" stroke-width="1.66667" stroke-linecap="round" stroke-linejoin="round"/>
<path id="Vector_2" d="M15.1975 17.5C17.2302 15.2013 18.3463 12.2352 18.3333 9.16667C18.3333 8.20146 18.0539 7.2569 17.5289 6.44698C17.0039 5.63707 16.2556 4.99643 15.3745 4.6024C14.4934 4.20837 13.5171 4.07779 12.5634 4.22642C11.6097 4.37504 10.7194 4.79653 10 5.44C9.28058 4.79653 8.39029 4.37504 7.4366 4.22642C6.48291 4.07779 5.50659 4.20837 4.62548 4.6024C3.74437 4.99643 2.99614 5.63707 2.47111 6.44698C1.94608 7.2569 1.66669 8.20146 1.66667 9.16667C1.66141 12.2338 2.77655 15.1972 4.8025 17.5C5.17559 17.9174 5.67798 18.1975 6.22918 18.2954C6.78038 18.3933 7.34849 18.3034 7.8425 18.04C8.50646 17.6858 9.24744 17.5004 10 17.5004C10.7526 17.5004 11.4935 17.6858 12.1575 18.04C12.6515 18.3034 13.2196 18.3933 13.7708 18.2954C14.322 18.1975 14.8244 17.9174 15.1975 17.5Z" stroke="var(--stroke-0, black)" stroke-width="1.66667" stroke-linecap="round" stroke-linejoin="round"/>
</g>
<defs>
<clipPath id="clip0_0_53">
<rect width="20" height="20" fill="white"/>
</clipPath>
</defs>
</svg>
