<svg preserveAspectRatio="none" width="100%" height="100%" overflow="visible" style="display: block;" viewBox="0 0 20 20" fill="none" xmlns="http://www.w3.org/2000/svg">
<g id="SVG">
<path id="Vector" d="M4.16667 4.16667C4.16658 3.87341 4.24387 3.58532 4.39074 3.33149C4.5376 3.07766 4.74884 2.86708 5.00313 2.721C5.25741 2.57492 5.54574 2.49852 5.83899 2.49952C6.13225 2.50051 6.42005 2.57887 6.67333 2.72667L16.6708 8.55833C16.9231 8.70473 17.1326 8.91479 17.2783 9.1675C17.424 9.42022 17.5008 9.70675 17.501 9.99845C17.5013 10.2901 17.425 10.5768 17.2797 10.8298C17.1345 11.0827 16.9254 11.2932 16.6733 11.44L6.67333 17.2733C6.42005 17.4211 6.13225 17.4995 5.83899 17.5005C5.54574 17.5015 5.25741 17.4251 5.00313 17.279C4.74884 17.1329 4.5376 16.9223 4.39074 16.6685C4.24387 16.4147 4.16658 16.1266 4.16667 15.8333V4.16667Z" fill="var(--fill-0, white)" fill-opacity="0.8" stroke="var(--stroke-0, white)" stroke-opacity="0.8" stroke-width="1.66667" stroke-linecap="round" stroke-linejoin="round"/>
</g>
</svg>
