<svg preserveAspectRatio="none" width="100%" height="100%" overflow="visible" style="display: block;" viewBox="0 0 400 400" fill="none" xmlns="http://www.w3.org/2000/svg">
<g id="SVG">
<path id="Vector" d="M250 350V216.667C250 212.246 248.244 208.007 245.118 204.882C241.993 201.756 237.754 200 233.333 200H166.667C162.246 200 158.007 201.756 154.882 204.882C151.756 208.007 150 212.246 150 216.667V350" stroke="var(--stroke-0, #2B7FFF)" stroke-opacity="0.025" stroke-width="13.3333" stroke-linecap="round" stroke-linejoin="round"/>
<path id="Vector_2" d="M50 166.667C49.9988 161.818 51.0556 157.027 53.0965 152.629C55.1374 148.23 58.1133 144.33 61.8167 141.2L178.483 41.2C184.5 36.1152 192.123 33.3253 200 33.3253C207.877 33.3253 215.5 36.1152 221.517 41.2L338.183 141.2C341.887 144.33 344.863 148.23 346.904 152.629C348.944 157.027 350.001 161.818 350 166.667V316.667C350 325.507 346.488 333.986 340.237 340.237C333.986 346.488 325.507 350 316.667 350H83.3333C74.4928 350 66.0143 346.488 59.7631 340.237C53.5119 333.986 50 325.507 50 316.667V166.667Z" stroke="var(--stroke-0, #2B7FFF)" stroke-opacity="0.025" stroke-width="13.3333" stroke-linecap="round" stroke-linejoin="round"/>
</g>
</svg>
