<svg preserveAspectRatio="none" width="100%" height="100%" overflow="visible" style="display: block;" viewBox="0 0 380 380" fill="none" xmlns="http://www.w3.org/2000/svg">
<g id="SVG">
<path id="Vector" d="M237.5 332.5V205.833C237.5 201.634 235.832 197.607 232.863 194.637C229.893 191.668 225.866 190 221.667 190H158.333C154.134 190 150.107 191.668 147.137 194.637C144.168 197.607 142.5 201.634 142.5 205.833V332.5" stroke="var(--stroke-0, #2B7FFF)" stroke-opacity="0.08" stroke-width="9.5" stroke-linecap="round" stroke-linejoin="round"/>
<path id="Vector_2" d="M47.5 158.333C47.4989 153.727 48.5028 149.176 50.4416 144.997C52.3805 140.819 55.2076 137.113 58.7258 134.14L169.559 39.14C175.275 34.3094 182.516 31.6591 190 31.6591C197.484 31.6591 204.725 34.3094 210.441 39.14L321.274 134.14C324.792 137.113 327.62 140.819 329.558 144.997C331.497 149.176 332.501 153.727 332.5 158.333V300.833C332.5 309.232 329.164 317.286 323.225 323.225C317.286 329.164 309.232 332.5 300.833 332.5H79.1667C70.7681 332.5 62.7136 329.164 56.775 323.225C50.8363 317.286 47.5 309.232 47.5 300.833V158.333Z" stroke="var(--stroke-0, #2B7FFF)" stroke-opacity="0.08" stroke-width="9.5" stroke-linecap="round" stroke-linejoin="round"/>
</g>
</svg>
