<svg preserveAspectRatio="none" width="100%" height="100%" overflow="visible" style="display: block;" viewBox="0 0 128 128" fill="none" xmlns="http://www.w3.org/2000/svg">
<g id="SVG">
<path id="Vector" d="M106.667 10.6667H21.3333C15.4423 10.6667 10.6667 15.4423 10.6667 21.3333V42.6667C10.6667 48.5577 15.4423 53.3333 21.3333 53.3333H106.667C112.558 53.3333 117.333 48.5577 117.333 42.6667V21.3333C117.333 15.4423 112.558 10.6667 106.667 10.6667Z" stroke="var(--stroke-0, white)" stroke-opacity="0.015" stroke-width="2.66667" stroke-linecap="round" stroke-linejoin="round"/>
<path id="Vector_2" d="M106.667 74.6667H21.3333C15.4423 74.6667 10.6667 79.4423 10.6667 85.3333V106.667C10.6667 112.558 15.4423 117.333 21.3333 117.333H106.667C112.558 117.333 117.333 112.558 117.333 106.667V85.3333C117.333 79.4423 112.558 74.6667 106.667 74.6667Z" stroke="var(--stroke-0, white)" stroke-opacity="0.015" stroke-width="2.66667" stroke-linecap="round" stroke-linejoin="round"/>
<path id="Vector_3" d="M32 32H32.0533" stroke="var(--stroke-0, white)" stroke-opacity="0.015" stroke-width="2.66667" stroke-linecap="round" stroke-linejoin="round"/>
<path id="Vector_4" d="M32 96H32.0533" stroke="var(--stroke-0, white)" stroke-opacity="0.015" stroke-width="2.66667" stroke-linecap="round" stroke-linejoin="round"/>
</g>
</svg>
