<svg preserveAspectRatio="none" width="100%" height="100%" overflow="visible" style="display: block;" viewBox="0 0 14 14" fill="none" xmlns="http://www.w3.org/2000/svg">
<g id="SVG" clip-path="url(#clip0_0_9)">
<path id="Vector" d="M7 12.8333C10.2217 12.8333 12.8333 10.2217 12.8333 7C12.8333 3.77834 10.2217 1.16667 7 1.16667C3.77834 1.16667 1.16667 3.77834 1.16667 7C1.16667 10.2217 3.77834 12.8333 7 12.8333Z" stroke="var(--stroke-0, white)" stroke-opacity="0.3" stroke-width="1.16667" stroke-linecap="round" stroke-linejoin="round"/>
<path id="Vector_2" d="M5.3025 5.25C5.43964 4.86014 5.71034 4.5314 6.06664 4.32199C6.42294 4.11259 6.84186 4.03605 7.24919 4.10592C7.65652 4.17578 8.02598 4.38756 8.29213 4.70372C8.55828 5.01989 8.70395 5.42005 8.70333 5.83333C8.70333 7 6.95333 7.58333 6.95333 7.58333" stroke="var(--stroke-0, white)" stroke-opacity="0.3" stroke-width="1.16667" stroke-linecap="round" stroke-linejoin="round"/>
<path id="Vector_3" d="M7 9.91667H7.00583" stroke="var(--stroke-0, white)" stroke-opacity="0.3" stroke-width="1.16667" stroke-linecap="round" stroke-linejoin="round"/>
</g>
<defs>
<clipPath id="clip0_0_9">
<rect width="14" height="14" fill="white"/>
</clipPath>
</defs>
</svg>
