<svg preserveAspectRatio="none" width="100%" height="100%" overflow="visible" style="display: block;" viewBox="0 0 20 20" fill="none" xmlns="http://www.w3.org/2000/svg">
<g id="SVG" clip-path="url(#clip0_0_30)">
<path id="Vector" d="M12.25 5.25C12.0973 5.40577 12.0118 5.61521 12.0118 5.83333C12.0118 6.05146 12.0973 6.26089 12.25 6.41667L13.5833 7.75C13.7391 7.90269 13.9485 7.98821 14.1667 7.98821C14.3848 7.98821 14.5942 7.90269 14.75 7.75L17.3383 5.1625C17.605 4.89417 18.0575 4.97917 18.1575 5.34417C18.4093 6.2599 18.3951 7.22839 18.1165 8.13633C17.8379 9.04426 17.3065 9.85409 16.5845 10.471C15.8625 11.088 14.9797 11.4865 14.0394 11.6201C13.0991 11.7536 12.1402 11.6165 11.275 11.225L4.68333 17.8167C4.35181 18.1481 3.90222 18.3342 3.43346 18.3341C2.96469 18.3341 2.51516 18.1478 2.18375 17.8162C1.85234 17.4847 1.6662 17.0351 1.66628 16.5664C1.66636 16.0976 1.85265 15.6481 2.18417 15.3167L8.77583 8.725C8.38429 7.85976 8.24726 6.9009 8.38078 5.96062C8.5143 5.02035 8.91285 4.13754 9.5298 3.41551C10.1467 2.69348 10.9566 2.16209 11.8645 1.88352C12.7724 1.60495 13.7409 1.59072 14.6567 1.8425C15.0217 1.9425 15.1067 2.39417 14.8392 2.6625L12.25 5.25Z" stroke="var(--stroke-0, #51A2FF)" stroke-width="1.66667" stroke-linecap="round" stroke-linejoin="round"/>
</g>
<defs>
<clipPath id="clip0_0_30">
<rect width="20" height="20" fill="white"/>
</clipPath>
</defs>
</svg>
