<svg preserveAspectRatio="none" width="100%" height="100%" overflow="visible" style="display: block;" viewBox="0 0 14 14" fill="none" xmlns="http://www.w3.org/2000/svg">
<g id="SVG">
<path id="Vector" d="M5.83333 9.33333H5.83917" stroke="var(--stroke-0, white)" stroke-opacity="0.3" stroke-width="1.16667" stroke-linecap="round" stroke-linejoin="round"/>
<path id="Vector_2" d="M1.29033 6.75325C1.20902 6.91548 1.16668 7.09445 1.16667 7.27592V10.5C1.16667 10.8094 1.28958 11.1062 1.50838 11.325C1.72717 11.5437 2.02391 11.6667 2.33333 11.6667H11.6667C11.9761 11.6667 12.2728 11.5437 12.4916 11.325C12.7104 11.1062 12.8333 10.8094 12.8333 10.5V7.27592C12.8333 7.09445 12.791 6.91548 12.7097 6.75325L10.8208 2.98083C10.7242 2.78646 10.5754 2.62288 10.3909 2.5085C10.2064 2.39411 9.99372 2.33345 9.77667 2.33333H4.22333C4.00628 2.33345 3.79357 2.39411 3.60911 2.5085C3.42465 2.62288 3.27575 2.78646 3.17917 2.98083L1.29033 6.75325Z" stroke="var(--stroke-0, white)" stroke-opacity="0.3" stroke-width="1.16667" stroke-linecap="round" stroke-linejoin="round"/>
<path id="Vector_3" d="M12.8018 7.00758H1.19817" stroke="var(--stroke-0, white)" stroke-opacity="0.3" stroke-width="1.16667" stroke-linecap="round" stroke-linejoin="round"/>
<path id="Vector_4" d="M3.5 9.33333H3.50583" stroke="var(--stroke-0, white)" stroke-opacity="0.3" stroke-width="1.16667" stroke-linecap="round" stroke-linejoin="round"/>
</g>
</svg>
