<svg preserveAspectRatio="none" width="100%" height="100%" overflow="visible" style="display: block;" viewBox="0 0 20 20" fill="none" xmlns="http://www.w3.org/2000/svg">
<g id="SVG" clip-path="url(#clip0_0_32)">
<path id="Vector" d="M10 16.6667V18.3333" stroke="var(--stroke-0, white)" stroke-opacity="0.3" stroke-width="1.66667" stroke-linecap="round" stroke-linejoin="round"/>
<path id="Vector_2" d="M10 1.66667V3.33333" stroke="var(--stroke-0, white)" stroke-opacity="0.3" stroke-width="1.66667" stroke-linecap="round" stroke-linejoin="round"/>
<path id="Vector_3" d="M14.1667 16.6667V18.3333" stroke="var(--stroke-0, white)" stroke-opacity="0.3" stroke-width="1.66667" stroke-linecap="round" stroke-linejoin="round"/>
<path id="Vector_4" d="M14.1667 1.66667V3.33333" stroke="var(--stroke-0, white)" stroke-opacity="0.3" stroke-width="1.66667" stroke-linecap="round" stroke-linejoin="round"/>
<path id="Vector_5" d="M1.66667 10H3.33333" stroke="var(--stroke-0, white)" stroke-opacity="0.3" stroke-width="1.66667" stroke-linecap="round" stroke-linejoin="round"/>
<path id="Vector_6" d="M1.66667 14.1667H3.33333" stroke="var(--stroke-0, white)" stroke-opacity="0.3" stroke-width="1.66667" stroke-linecap="round" stroke-linejoin="round"/>
<path id="Vector_7" d="M1.66667 5.83333H3.33333" stroke="var(--stroke-0, white)" stroke-opacity="0.3" stroke-width="1.66667" stroke-linecap="round" stroke-linejoin="round"/>
<path id="Vector_8" d="M16.6667 10H18.3333" stroke="var(--stroke-0, white)" stroke-opacity="0.3" stroke-width="1.66667" stroke-linecap="round" stroke-linejoin="round"/>
<path id="Vector_9" d="M16.6667 14.1667H18.3333" stroke="var(--stroke-0, white)" stroke-opacity="0.3" stroke-width="1.66667" stroke-linecap="round" stroke-linejoin="round"/>
<path id="Vector_10" d="M16.6667 5.83333H18.3333" stroke="var(--stroke-0, white)" stroke-opacity="0.3" stroke-width="1.66667" stroke-linecap="round" stroke-linejoin="round"/>
<path id="Vector_11" d="M5.83333 16.6667V18.3333" stroke="var(--stroke-0, white)" stroke-opacity="0.3" stroke-width="1.66667" stroke-linecap="round" stroke-linejoin="round"/>
<path id="Vector_12" d="M5.83333 1.66667V3.33333" stroke="var(--stroke-0, white)" stroke-opacity="0.3" stroke-width="1.66667" stroke-linecap="round" stroke-linejoin="round"/>
<path id="Vector_13" d="M15 3.33333H5C4.07953 3.33333 3.33333 4.07953 3.33333 5V15C3.33333 15.9205 4.07953 16.6667 5 16.6667H15C15.9205 16.6667 16.6667 15.9205 16.6667 15V5C16.6667 4.07953 15.9205 3.33333 15 3.33333Z" stroke="var(--stroke-0, white)" stroke-opacity="0.3" stroke-width="1.66667" stroke-linecap="round" stroke-linejoin="round"/>
<path id="Vector_14" d="M12.5 6.66667H7.5C7.03976 6.66667 6.66667 7.03976 6.66667 7.5V12.5C6.66667 12.9602 7.03976 13.3333 7.5 13.3333H12.5C12.9602 13.3333 13.3333 12.9602 13.3333 12.5V7.5C13.3333 7.03976 12.9602 6.66667 12.5 6.66667Z" stroke="var(--stroke-0, white)" stroke-opacity="0.3" stroke-width="1.66667" stroke-linecap="round" stroke-linejoin="round"/>
</g>
<defs>
<clipPath id="clip0_0_32">
<rect width="20" height="20" fill="white"/>
</clipPath>
</defs>
</svg>
