<svg preserveAspectRatio="none" width="100%" height="100%" overflow="visible" style="display: block;" viewBox="0 0 14 14" fill="none" xmlns="http://www.w3.org/2000/svg">
<g id="SVG">
<path id="Vector" d="M8.16667 1.16667V4.08333C8.16667 4.23804 8.22813 4.38642 8.33752 4.49581C8.44692 4.60521 8.59529 4.66667 8.75 4.66667H11.6667" stroke="var(--stroke-0, white)" stroke-opacity="0.5" stroke-width="1.16667" stroke-linecap="round" stroke-linejoin="round"/>
<path id="Vector_2" d="M2.33333 7V10.5" stroke="var(--stroke-0, white)" stroke-opacity="0.5" stroke-width="1.16667" stroke-linecap="round" stroke-linejoin="round"/>
<path id="Vector_3" d="M2.33333 8.16667H3.5" stroke="var(--stroke-0, white)" stroke-opacity="0.5" stroke-width="1.16667" stroke-linecap="round" stroke-linejoin="round"/>
<path id="Vector_4" d="M5.62917 12.8333H10.5C10.8094 12.8333 11.1062 12.7104 11.325 12.4916C11.5437 12.2728 11.6667 11.9761 11.6667 11.6667V4.66667C11.6671 4.48181 11.631 4.2987 11.5603 4.1279C11.4896 3.95709 11.3858 3.80198 11.2548 3.6715L9.16183 1.5785C9.03136 1.44755 8.87624 1.34374 8.70544 1.27306C8.53463 1.20237 8.35152 1.16621 8.16667 1.16667H3.5C3.19058 1.16667 2.89383 1.28958 2.67504 1.50838C2.45625 1.72717 2.33333 2.02391 2.33333 2.33333V4.66667" stroke="var(--stroke-0, white)" stroke-opacity="0.5" stroke-width="1.16667" stroke-linecap="round" stroke-linejoin="round"/>
<path id="Vector_5" d="M2.33333 12.8333C2.97767 12.8333 3.5 12.311 3.5 11.6667C3.5 11.0223 2.97767 10.5 2.33333 10.5C1.689 10.5 1.16667 11.0223 1.16667 11.6667C1.16667 12.311 1.689 12.8333 2.33333 12.8333Z" stroke="var(--stroke-0, white)" stroke-opacity="0.5" stroke-width="1.16667" stroke-linecap="round" stroke-linejoin="round"/>
</g>
</svg>
