<svg preserveAspectRatio="none" width="100%" height="100%" overflow="visible" style="display: block;" viewBox="0 0 160 160" fill="none" xmlns="http://www.w3.org/2000/svg">
<g id="SVG">
<path id="Vector" d="M133.333 13.3333H26.6667C19.3029 13.3333 13.3333 19.3029 13.3333 26.6667V53.3333C13.3333 60.6971 19.3029 66.6667 26.6667 66.6667H133.333C140.697 66.6667 146.667 60.6971 146.667 53.3333V26.6667C146.667 19.3029 140.697 13.3333 133.333 13.3333Z" stroke="var(--stroke-0, white)" stroke-opacity="0.02" stroke-width="3.33333" stroke-linecap="round" stroke-linejoin="round"/>
<path id="Vector_2" d="M133.333 93.3333H26.6667C19.3029 93.3333 13.3333 99.3029 13.3333 106.667V133.333C13.3333 140.697 19.3029 146.667 26.6667 146.667H133.333C140.697 146.667 146.667 140.697 146.667 133.333V106.667C146.667 99.3029 140.697 93.3333 133.333 93.3333Z" stroke="var(--stroke-0, white)" stroke-opacity="0.02" stroke-width="3.33333" stroke-linecap="round" stroke-linejoin="round"/>
<path id="Vector_3" d="M40 40H40.0667" stroke="var(--stroke-0, white)" stroke-opacity="0.02" stroke-width="3.33333" stroke-linecap="round" stroke-linejoin="round"/>
<path id="Vector_4" d="M40 120H40.0667" stroke="var(--stroke-0, white)" stroke-opacity="0.02" stroke-width="3.33333" stroke-linecap="round" stroke-linejoin="round"/>
</g>
</svg>
