<svg preserveAspectRatio="none" width="100%" height="100%" overflow="visible" style="display: block;" viewBox="0 0 14 14" fill="none" xmlns="http://www.w3.org/2000/svg">
<g id="SVG">
<path id="Vector" d="M9.04167 4.375L10.3833 5.71667C10.4924 5.82355 10.639 5.88342 10.7917 5.88342C10.9444 5.88342 11.091 5.82355 11.2 5.71667L12.425 4.49167C12.5319 4.38262 12.5918 4.23602 12.5918 4.08333C12.5918 3.93064 12.5319 3.78404 12.425 3.675L11.0833 2.33333" stroke="var(--stroke-0, #00D492)" stroke-width="1.16667" stroke-linecap="round" stroke-linejoin="round"/>
<path id="Vector_2" d="M12.25 1.16667L6.65 6.76667" stroke="var(--stroke-0, #00D492)" stroke-width="1.16667" stroke-linecap="round" stroke-linejoin="round"/>
<path id="Vector_3" d="M4.375 12.25C6.14691 12.25 7.58333 10.8136 7.58333 9.04167C7.58333 7.26975 6.14691 5.83333 4.375 5.83333C2.60309 5.83333 1.16667 7.26975 1.16667 9.04167C1.16667 10.8136 2.60309 12.25 4.375 12.25Z" stroke="var(--stroke-0, #00D492)" stroke-width="1.16667" stroke-linecap="round" stroke-linejoin="round"/>
</g>
</svg>
