<svg preserveAspectRatio="none" width="100%" height="100%" overflow="visible" style="display: block;" viewBox="0 0 128 128" fill="none" xmlns="http://www.w3.org/2000/svg">
<g id="SVG">
<path id="Vector" d="M51.5787 22.0587C51.8725 18.9671 53.3084 16.0962 55.6059 14.0068C57.9033 11.9174 60.8972 10.7596 64.0027 10.7596C67.1081 10.7596 70.102 11.9174 72.3995 14.0068C74.6969 16.0962 76.1328 18.9671 76.4267 22.0587C76.6033 24.0558 77.2585 25.9809 78.3367 27.6711C79.415 29.3614 80.8846 30.767 82.6211 31.7689C84.3577 32.7709 86.3101 33.3397 88.3131 33.4273C90.316 33.5149 92.3106 33.1186 94.128 32.272C96.9499 30.9908 100.148 30.8054 103.099 31.7519C106.05 32.6984 108.543 34.7091 110.093 37.3926C111.644 40.076 112.14 43.2404 111.486 46.2697C110.832 49.299 109.074 51.9766 106.555 53.7813C104.914 54.9325 103.575 56.4619 102.65 58.2401C101.726 60.0184 101.243 61.9931 101.243 63.9973C101.243 66.0016 101.726 67.9763 102.65 69.7545C103.575 71.5328 104.914 73.0621 106.555 74.2133C109.074 76.018 110.832 78.6956 111.486 81.725C112.14 84.7543 111.644 87.9186 110.093 90.6021C108.543 93.2856 106.05 95.2963 103.099 96.2427C100.148 97.1892 96.9499 97.0039 94.128 95.7227C92.3106 94.8761 90.316 94.4798 88.3131 94.5674C86.3101 94.6549 84.3577 95.2238 82.6211 96.2257C80.8846 97.2277 79.415 98.6333 78.3367 100.324C77.2585 102.014 76.6033 103.939 76.4267 105.936C76.1328 109.028 74.6969 111.898 72.3995 113.988C70.102 116.077 67.1081 117.235 64.0027 117.235C60.8972 117.235 57.9033 116.077 55.6059 113.988C53.3084 111.898 51.8725 109.028 51.5787 105.936C51.4024 103.938 50.7472 102.012 49.6686 100.321C48.59 98.6306 47.1199 97.2246 45.3826 96.2225C43.6453 95.2204 41.6921 94.6518 39.6884 94.5648C37.6847 94.4778 35.6896 94.875 33.872 95.7227C31.0501 97.0039 27.8524 97.1892 24.9013 96.2427C21.9503 95.2963 19.4569 93.2856 17.9066 90.6021C16.3562 87.9186 15.8598 84.7543 16.5139 81.725C17.168 78.6956 18.9259 76.018 21.4453 74.2133C23.086 73.0621 24.4252 71.5328 25.3498 69.7545C26.2744 67.9763 26.7571 66.0016 26.7571 63.9973C26.7571 61.9931 26.2744 60.0184 25.3498 58.2401C24.4252 56.4619 23.086 54.9325 21.4453 53.7813C18.9294 51.9757 17.1747 49.2992 16.5221 46.2719C15.8696 43.2446 16.3659 40.0829 17.9146 37.4011C19.4633 34.7194 21.9537 32.7092 24.9018 31.7613C27.85 30.8134 31.0452 30.9954 33.8667 32.272C35.684 33.1186 37.6786 33.5149 39.6816 33.4273C41.6846 33.3397 43.637 32.7709 45.3735 31.7689C47.1101 30.767 48.5797 29.3614 49.6579 27.6711C50.7362 25.9809 51.3914 24.0558 51.568 22.0587" stroke="var(--stroke-0, white)" stroke-opacity="0.015" stroke-width="2.66667" stroke-linecap="round" stroke-linejoin="round"/>
<path id="Vector_2" d="M64 80C72.8366 80 80 72.8366 80 64C80 55.1634 72.8366 48 64 48C55.1634 48 48 55.1634 48 64C48 72.8366 55.1634 80 64 80Z" stroke="var(--stroke-0, white)" stroke-opacity="0.015" stroke-width="2.66667" stroke-linecap="round" stroke-linejoin="round"/>
</g>
</svg>
