<svg preserveAspectRatio="none" width="100%" height="100%" overflow="visible" style="display: block;" viewBox="0 0 12 12" fill="none" xmlns="http://www.w3.org/2000/svg">
<g id="SVG">
<path id="Vector" d="M10 6.5C10 9 8.25 10.25 6.17 10.975C6.06108 11.0119 5.94277 11.0101 5.835 10.97C3.75 10.25 2 9 2 6.5V3C2 2.86739 2.05268 2.74021 2.14645 2.64645C2.24021 2.55268 2.36739 2.5 2.5 2.5C3.5 2.5 4.75 1.9 5.62 1.14C5.72593 1.0495 5.86068 0.999775 6 0.999775C6.13932 0.999775 6.27407 1.0495 6.38 1.14C7.255 1.905 8.5 2.5 9.5 2.5C9.63261 2.5 9.75979 2.55268 9.85355 2.64645C9.94732 2.74021 10 2.86739 10 3V6.5Z" stroke="var(--stroke-0, #51A2FF)" stroke-linecap="round" stroke-linejoin="round"/>
</g>
</svg>
