<svg preserveAspectRatio="none" width="100%" height="100%" overflow="visible" style="display: block;" viewBox="0 0 12 12" fill="none" xmlns="http://www.w3.org/2000/svg">
<g id="SVG" clip-path="url(#clip0_0_39)">
<path id="Vector" d="M2 7C1.90538 7.00032 1.81262 6.97379 1.73248 6.92349C1.65234 6.87319 1.58812 6.80118 1.54728 6.71583C1.50643 6.63048 1.49065 6.53529 1.50175 6.44133C1.51285 6.34736 1.55039 6.25848 1.61 6.185L6.56 1.085C6.59713 1.04214 6.64773 1.01318 6.70349 1.00287C6.75925 0.992555 6.81686 1.00151 6.86687 1.02825C6.91687 1.055 6.95629 1.09795 6.97867 1.15005C7.00104 1.20216 7.00504 1.26032 6.99 1.315L6.03 4.325C6.00169 4.40076 5.99219 4.48226 6.0023 4.5625C6.01241 4.64275 6.04183 4.71934 6.08805 4.78571C6.13426 4.85209 6.19589 4.90626 6.26764 4.94358C6.33939 4.9809 6.41912 5.00026 6.5 5H10C10.0946 4.99968 10.1874 5.02621 10.2675 5.07651C10.3477 5.12681 10.4119 5.19882 10.4527 5.28417C10.4936 5.36952 10.5094 5.46471 10.4983 5.55867C10.4871 5.65264 10.4496 5.74152 10.39 5.815L5.44 10.915C5.40287 10.9579 5.35227 10.9868 5.29651 10.9971C5.24075 11.0074 5.18314 10.9985 5.13313 10.9717C5.08313 10.945 5.04371 10.9021 5.02133 10.8499C4.99896 10.7978 4.99496 10.7397 5.01 10.685L5.97 7.675C5.99831 7.59924 6.00781 7.51774 5.9977 7.4375C5.98759 7.35725 5.95817 7.28066 5.91195 7.21429C5.86574 7.14791 5.80411 7.09374 5.73236 7.05642C5.66061 7.0191 5.58088 6.99974 5.5 7H2Z" stroke="var(--stroke-0, #51A2FF)" stroke-linecap="round" stroke-linejoin="round"/>
</g>
<defs>
<clipPath id="clip0_0_39">
<rect width="12" height="12" fill="white"/>
</clipPath>
</defs>
</svg>
